<?xml version="1.0" standalone="no"?>
<!DOCTYPE svg PUBLIC "-//W3C//DTD SVG 20010904//EN"
 "http://www.w3.org/TR/2001/REC-SVG-20010904/DTD/svg10.dtd">
<svg version="1.0" xmlns="http://www.w3.org/2000/svg" width="500.000000pt" height="500.000000pt" viewBox="0 0 500.000000 500.000000" preserveAspectRatio="xMidYMid meet">
    <g transform="translate(0.000000,500.000000) scale(0.100000,-0.100000)" fill="#000000" stroke="none">
        <path d="M1946 4834 c-109 -24 -192 -70 -271 -149 -82 -81 -118 -143 -145
        -251 -25 -97 -25 -154 0 -272 32 -151 13 -183 -177 -293 -326 -189 -591 -472
        -763 -817 -134 -271 -196 -517 -207 -833 -17 -487 117 -920 403 -1300 456
        -604 1262 -899 2099 -768 773 121 1393 631 1629 1341 302 907 -56 1897 -854
        2365 -189 111 -205 136 -170 269 79 304 -84 593 -384 679 -46 13 -84 16 -165
        13 -116 -6 -180 -25 -265 -78 -105 -67 -198 -64 -312 11 -127 82 -283 113
        -418 83z m245 -94 c111 -34 217 -117 261 -205 l20 -40 -43 42 c-67 65 -148 97
        -239 98 -66 0 -85 -5 -144 -34 -75 -37 -106 -75 -106 -129 0 -75 29 -99 190
        -156 l95 -34 -35 -14 c-19 -8 -66 -25 -105 -38 -92 -31 -125 -63 -125 -123 0
        -41 4 -49 40 -80 103 -88 295 -82 403 14 25 21 48 39 52 39 14 0 -33 -64 -80
        -109 -64 -61 -125 -96 -200 -115 -265 -70 -529 102 -575 373 -37 220 102 442
        320 512 76 25 191 24 271 -1z m884 -14 c74 -20 152 -62 206 -113 27 -25 49
        -49 49 -54 0 -4 -19 3 -43 16 -112 63 -293 43 -371 -41 -30 -33 -38 -71 -25
        -117 14 -51 55 -81 164 -117 52 -17 95 -35 95 -40 0 -4 -47 -24 -104 -44 -115
        -42 -145 -65 -153 -123 -7 -50 19 -83 95 -120 49 -24 69 -28 142 -28 72 0 93
        4 140 27 30 15 56 25 58 23 9 -9 -91 -94 -144 -122 -79 -42 -131 -54 -222 -54
        -77 0 -150 19 -222 56 -47 24 -128 102 -160 154 l-27 43 20 52 c28 72 35 233
        13 308 -22 77 -21 79 25 138 104 132 304 199 464 156z m-404 -1601 c427 -74
        744 -380 830 -800 7 -33 12 -114 12 -180 0 -168 -29 -296 -100 -440 -165 -333
        -529 -555 -911 -555 -681 0 -1161 621 -981 1270 43 154 130 301 249 421 232
        234 573 342 901 284z"/>
    </g>
</svg>
